Coordinates
version=1
nRows=16
nColumns=40
inDegrees=yes

Units are S.I. units (second, meters, Newtons, ...)
Angles are in degrees.

endheader
time	pelvis_tilt	pelvis_list	pelvis_rotation	pelvis_tx	pelvis_ty	pelvis_tz	hip_flexion_r	hip_adduction_r	hip_rotation_r	knee_angle_r	knee_angle_r_beta	ankle_angle_r	subtalar_angle_r	mtp_angle_r	hip_flexion_l	hip_adduction_l	hip_rotation_l	knee_angle_l	knee_angle_l_beta	ankle_angle_l	subtalar_angle_l	mtp_angle_l	lumbar_extension	lumbar_bending	lumbar_rotation	arm_flex_r	arm_add_r	arm_rot_r	elbow_flex_r	pro_sup_r	wrist_flex_r	wrist_dev_r	arm_flex_l	arm_add_l	arm_rot_l	elbow_flex_l	pro_sup_l	wrist_flex_l	wrist_dev_l
      9.87500000	     -3.46787529	     -4.19589219	     15.72383614	      1.04209926	      0.91630619	      0.49970951	      7.15882134	      4.63158902	    -16.05882176	     21.22666300	     21.22666300	     19.72941780	     -9.46884037	     -1.65446433	     30.05696213	     -6.86276884	      2.94178842	     17.12480174	     17.12480174	      0.64366057	     -0.98977536	      4.36417458	     -9.23505888	      2.83178986	      5.62048173	     73.98677497	    -21.39374738	     -2.03079538	     65.89544439	     45.29942095	      0.00000000	      0.00000000	    -25.66633334	     -8.49538401	     20.71336441	     31.26640864	     43.22662016	      0.00000000	      0.00000000
      9.89735714	     -3.58551252	     -4.31521134	     15.91001672	      1.04292691	      0.91544416	      0.49626480	      6.81373391	      4.61414618	    -16.17423521	     21.10450285	     21.10450285	     20.07693837	     -9.37205058	     -1.44694347	     29.85846988	     -6.59802870	      3.41814328	     17.08543065	     17.08543065	     -0.41853353	     -2.19250821	      1.40063225	     -9.15251718	      2.73182749	      5.96835737	     74.06122372	    -21.66215286	     -2.61114304	     70.30357178	     45.19524697	      0.00000000	      0.00000000	    -25.41700997	     -8.29261324	     21.13344344	     31.33124658	     43.30063574	      0.00000000	      0.00000000
      9.91971429	     -3.69392216	     -4.45970176	     16.06961758	      1.04381876	      0.91460690	      0.49258289	      6.44883152	      4.63183737	    -16.20566428	     20.94718709	     20.94718709	     20.31687959	     -9.41587965	     -1.38220070	     29.89339703	     -6.40950719	      3.77376229	     17.65195530	     17.65195530	     -0.48378396	     -3.06421499	      0.58690528	     -9.00244979	      2.72232371	      5.69779880	     74.73935886	    -21.04497421	     -2.54477366	     72.15080562	     45.14472118	      0.00000000	      0.00000000	    -25.16002181	     -7.95501575	     21.43699084	     31.24577957	     43.31415901	      0.00000000	      0.00000000
      9.94207143	     -3.75082826	     -4.50393720	     16.13972381	      1.04482926	      0.91399851	      0.48872460	      5.99583158	      4.54214743	    -16.16709537	     20.80857218	     20.80857218	     20.52242574	     -9.42775440	     -1.37106559	     29.88934587	     -6.20580973	      3.92456090	     18.41101528	     18.41101528	     -0.32304880	     -3.76125258	      0.20228315	     -8.96350464	      2.62972467	      5.65120816	     75.39677589	    -20.64107104	     -2.55545242	     73.17713545	     45.11663650	      0.00000000	      0.00000000	    -24.64033703	     -7.83409453	     21.49425646	     31.33915631	     43.32757990	      0.00000000	      0.00000000
      9.96442857	     -3.82930513	     -4.58111659	     16.17171949	      1.04598200	      0.91352333	      0.48461251	      5.50828820	      4.47337712	    -16.13393996	     20.56067599	     20.56067599	     20.67616005	     -9.37572452	     -1.32555632	     29.94446763	     -6.00451561	      4.28739376	     19.26082365	     19.26082365	     -0.12567640	     -4.63630169	     -0.20405172	     -8.86945252	      2.61494383	      5.47541570	     75.51473076	    -20.12045045	     -2.57847080	     74.58763960	     45.07442606	      0.00000000	      0.00000000	    -24.05254524	     -7.75938906	     21.53675030	     31.40485575	     43.34581824	      0.00000000	      0.00000000
      9.98678571	     -3.95251553	     -4.57932142	     16.21154351	      1.04727560	      0.91337479	      0.48013932	      5.00230205	      4.27815094	    -16.16183519	     20.27003098	     20.27003098	     20.74101947	     -9.18007086	     -1.21767858	     29.83661190	     -5.62272532	      4.92466471	     19.78317198	     19.78317198	     -0.28889344	     -6.11242258	     -0.80705153	     -8.84229664	      2.46364303	      6.03304134	     74.28886933	    -20.55772109	     -3.50845718	     79.00119849	     44.97908825	      0.00000000	      0.00000000	    -22.91790211	     -7.92151371	     21.56974700	     31.20984912	     43.44555341	      0.00000000	      0.00000000
     10.00914286	     -4.05795651	     -4.68947951	     16.12461880	      1.04853080	      0.91334133	      0.47566368	      4.45216025	      4.21394978	    -16.12746221	     19.84050382	     19.84050382	     20.69519198	     -8.92172391	     -1.13860087	     29.95029865	     -5.47557136	      5.14181732	     20.68616125	     20.68616125	      0.03009640	     -6.84261043	     -0.99607941	     -8.74407207	      2.51451326	      5.92795915	     74.00740625	    -20.18403204	     -3.45052257	     79.81975657	     44.95554115	      0.00000000	      0.00000000	    -22.04424858	     -8.06757339	     21.55086701	     31.32846328	     43.48279627	      0.00000000	      0.00000000
     10.03150000	     -4.18364235	     -4.64531095	     15.95756591	      1.04991377	      0.91368662	      0.47096285	      3.86589100	      3.93021479	    -16.14113788	     19.42093380	     19.42093380	     20.58117459	     -8.45260406	     -1.21061372	     29.87750309	     -5.15239060	      5.41895135	     21.35451428	     21.35451428	      0.49757155	     -7.73452616	     -0.54412157	     -8.70494074	      2.39820118	      6.24404699	     72.94076319	    -20.25665236	     -3.92168638	     81.91256760	     44.92053960	      0.00000000	      0.00000000	    -20.92752655	     -8.38674415	     21.35868791	     31.37597320	     43.59777831	      0.00000000	      0.00000000
     10.05385714	     -4.32640118	     -4.67734843	     15.69701530	      1.05126047	      0.91407102	      0.46625387	      3.34274226	      3.70616267	    -16.09280246	     19.02130449	     19.02130449	     20.36831810	     -7.98694490	     -1.34602892	     29.92231821	     -4.95399220	      5.52406037	     22.17068657	     22.17068657	      1.20778355	     -8.31488314	      0.04183317	     -8.60485845	      2.38602149	      6.51676551	     71.97343119	    -20.22301334	     -4.19262877	     82.87499588	     44.92527507	      0.00000000	      0.00000000	    -19.79998520	     -8.73294443	     21.01359917	     31.42299752	     43.75941209	      0.00000000	      0.00000000
     10.07621429	     -4.49928742	     -4.65604027	     15.32881385	      1.05252743	      0.91458143	      0.46156414	      2.96587232	      3.39001080	    -15.86103558	     18.84856413	     18.84856413	     20.17908752	     -7.73622595	     -1.27561598	     29.81986362	     -4.76616239	      5.41647818	     22.66795227	     22.66795227	      1.63691309	     -8.75550875	     -0.12839091	     -8.52000631	      2.33894459	      6.48873415	     71.22282642	    -19.78646764	     -4.00768643	     82.76463193	     44.92074041	      0.00000000	      0.00000000	    -18.73461529	     -9.11129708	     20.87380438	     31.67397244	     43.79685469	      0.00000000	      0.00000000
     10.09857143	     -4.58060842	     -4.80856149	     14.95054811	      1.05392586	      0.91527172	      0.45670427	      2.30530672	      3.26640092	    -15.97412479	     18.23138532	     18.23138532	     19.81781571	     -6.77872950	     -1.31418114	     29.79144051	     -4.68353503	      5.64784088	     23.41428479	     23.41428479	      2.25160807	     -9.65699674	      0.19474696	     -8.44553644	      2.48749437	      6.66769048	     69.81326187	    -19.65060274	     -4.35751851	     82.75056417	     44.93497414	      0.00000000	      0.00000000	    -17.72645555	     -9.50683195	     20.44530704	     31.89016604	     43.89596249	      0.00000000	      0.00000000
     10.12092857	     -4.73759967	     -4.86144784	     14.41927564	      1.05510874	      0.91592991	      0.45207435	      2.04791327	      2.97430151	    -15.67912839	     18.23276947	     18.23276947	     19.55230966	     -6.47392363	     -1.27581469	     29.58372775	     -4.63135288	      5.40839274	     23.73160338	     23.73160338	      2.76023384	    -10.09117614	      0.06490003	     -8.43550790	      2.48365561	      6.53264455	     68.82390132	    -19.25256186	     -4.20074392	     82.53054357	     44.93348650	      0.00000000	      0.00000000	    -16.59422069	     -9.87546294	     20.28276238	     32.15466554	     43.93605027	      0.00000000	      0.00000000
     10.14328571	     -4.85666702	     -4.90042691	     13.89721744	      1.05642136	      0.91674717	      0.44709687	      1.55600316	      2.61863944	    -15.80031421	     17.90706171	     17.90706171	     19.26086164	     -5.37124223	     -1.48821956	     29.42604741	     -4.49520275	      5.31384348	     24.26975697	     24.26975697	      3.37051129	    -10.79072165	      0.53773469	     -8.27155698	      2.55599369	      6.86018175	     66.64784442	    -19.13492085	     -4.73670229	     81.82739430	     44.97159493	      0.00000000	      0.00000000	    -15.34005821	    -10.28687229	     19.65414222	     32.27085284	     44.06242127	      0.00000000	      0.00000000
     10.16564286	     -5.02196928	     -4.92309067	     13.29483047	      1.05747418	      0.91755086	      0.44220470	      1.27937005	      2.17099373	    -15.91017939	     17.83662459	     17.83662459	     18.75199180	     -4.33823542	     -2.31496395	     29.29462822	     -4.38830178	      5.05112528	     24.81445299	     24.81445299	      4.74569793	    -10.94347323	      2.66318446	     -8.23463149	      2.54271736	      6.93719350	     64.56389583	    -18.55649728	     -5.95267643	     81.28340694	     45.05803932	      0.00000000	      0.00000000	    -13.77734588	     -9.99629678	     16.79554053	     31.29626879	     44.61091716	      0.00000000	      0.00000000
     10.18800000	     -5.12031442	     -5.03185061	     12.64841304	      1.05853194	      0.91838392	      0.43741390	      1.04062102	      1.88101539	    -15.63852886	     17.88618414	     17.88618414	     18.40409142	     -3.85357683	     -2.28288360	     28.99777333	     -4.42888676	      4.69934656	     25.08238423	     25.08238423	      5.20113237	    -11.37352244	      2.51803422	     -8.25747393	      2.65854092	      6.76746202	     62.36576005	    -18.13184438	     -5.72389470	     80.43620996	     45.07017895	      0.00000000	      0.00000000	    -12.49742692	    -10.34559859	     16.56858249	     31.62519172	     44.66506198	      0.00000000	      0.00000000
     10.21035714	     -5.31425596	     -5.12592962	     12.00612184	      1.05944337	      0.91920358	      0.43246882	      0.90601488	      1.46542948	    -15.73986774	     17.94531720	     17.94531720	     18.04315342	     -2.74338317	     -2.44148152	     28.71034386	     -4.42241418	      4.30238767	     25.16840124	     25.16840124	      5.62232350	    -11.69097734	      2.53750268	     -8.12515011	      2.71925468	      6.84358257	     59.76225086	    -18.09655999	     -5.99594101	     78.76026240	     45.12705331	      0.00000000	      0.00000000	    -10.94061456	    -10.60806312	     16.07261888	     31.77729450	     44.76853553	      0.00000000	      0.00000000
